HIERARCHY
ROOT Hips
{
  OFFSET 47.7473 84.1579 -1.72347
  CHANNELS 6 Xposition Yposition Zposition Zrotation Xrotation Yrotation
  JOINT spine
  {
    OFFSET 0 5.95438 0.342407
    CHANNELS 3 Zrotation Xrotation Yrotation
    JOINT spine1
    {
      OFFSET 0 8.85602 0
      CHANNELS 3 Zrotation Xrotation Yrotation
      JOINT spine2
      {
        OFFSET 0 8.48567 0
        CHANNELS 3 Zrotation Xrotation Yrotation
        JOINT Neck
        {
          OFFSET 0 21.7863 1.0387
          CHANNELS 3 Zrotation Xrotation Yrotation
          JOINT Head
          {
            OFFSET 0 6.5822 0
            CHANNELS 3 Zrotation Xrotation Yrotation
            End Site
            {
              OFFSET 0 15.9326 -5.25436
            }
          }
        }
        JOINT RightShoulder
        {
          OFFSET -3.57307 9.16386 -0.497525
          CHANNELS 3 Zrotation Xrotation Yrotation
          JOINT RightArm
          {
            OFFSET 0 12.0192 0
            CHANNELS 3 Zrotation Xrotation Yrotation
            JOINT RightArmRoll
            {
              OFFSET 0 6.06755 0
              CHANNELS 3 Zrotation Xrotation Yrotation
              JOINT RightForeArm
              {
                OFFSET 0 17.6726 0
                CHANNELS 3 Zrotation Xrotation Yrotation
                JOINT RightForeArmRoll
                {
                  OFFSET 0 6.80872 0
                  CHANNELS 3 Zrotation Xrotation Yrotation
                  JOINT RightHand
                  {
                    OFFSET 0 13.6636 0
                    CHANNELS 3 Zrotation Xrotation Yrotation
                    End Site
                    {
                      OFFSET 0 0 0
                    }
                  }
                }
              }
            }
          }
        }
        JOINT LeftShoulder
        {
          OFFSET 3.57307 9.16386 -0.497525
          CHANNELS 3 Zrotation Xrotation Yrotation
          JOINT LeftArm
          {
            OFFSET 0 12.0192 0
            CHANNELS 3 Zrotation Xrotation Yrotation
            JOINT LeftArmRoll
            {
              OFFSET 0 6.06755 0
              CHANNELS 3 Zrotation Xrotation Yrotation
              JOINT LeftForeArm
              {
                OFFSET 0 17.6726 0
                CHANNELS 3 Zrotation Xrotation Yrotation
                JOINT LeftForeArmRoll
                {
                  OFFSET 0 6.80872 0
                  CHANNELS 3 Zrotation Xrotation Yrotation
                  JOINT LeftHand
                  {
                    OFFSET 0 13.6636 0
                    CHANNELS 3 Zrotation Xrotation Yrotation
                    End Site
                    {
                      OFFSET 0 0 0
                    }
                  }
                }
              }
            }
          }
        }
      }
    }
  }
  JOINT RightUpLeg
  {
    OFFSET -5.27774 -0.967797 -0.811858
    CHANNELS 3 Zrotation Xrotation Yrotation
    JOINT RightUpLegRoll
    {
      OFFSET 0 16.0214 0
      CHANNELS 3 Zrotation Xrotation Yrotation
      JOINT RightLeg
      {
        OFFSET 0 -19.8401 0
        CHANNELS 3 Zrotation Xrotation Yrotation
        JOINT RightLegRoll
        {
          OFFSET 0 19.905 0
          CHANNELS 3 Zrotation Xrotation Yrotation
          JOINT RightFoot
          {
            OFFSET 0 16.5675 0
            CHANNELS 3 Zrotation Xrotation Yrotation
            JOINT RightToeBase
            {
              OFFSET 0 13.8496 0
              CHANNELS 3 Zrotation Xrotation Yrotation
              End Site
              {
                OFFSET 0.00587034 6.70728 -0.773117
              }
            }
          }
        }
      }
    }
  }
  JOINT LeftUpLeg
  {
    OFFSET 5.27774 -0.967797 -0.811858
    CHANNELS 3 Zrotation Xrotation Yrotation
    JOINT LeftUpLegRoll
    {
      OFFSET 0 16.0215 0
      CHANNELS 3 Zrotation Xrotation Yrotation
      JOINT LeftLeg
      {
        OFFSET 0 19.84 0
        CHANNELS 3 Zrotation Xrotation Yrotation
        JOINT LeftLegRoll
        {
          OFFSET 0 20.089 0
          CHANNELS 3 Zrotation Xrotation Yrotation
          JOINT LeftFoot
          {
            OFFSET 0 16.3835 0
            CHANNELS 3 Zrotation Xrotation Yrotation
            JOINT LeftToeBase
            {
              OFFSET 0 13.8496 0
              CHANNELS 3 Zrotation Xrotation Yrotation
              End Site
              {
                OFFSET -0.0263083 6.70727 -0.773117
              }
            }
          }
        }
      }
    }
  }
}
MOTION
Frames: 8
Frame Time: 0.00208333
55.1493 84.2113 -4.8075 3.55024 -8.55653 0.726329 -0.416727 0.884102 0.0545494 -0.850952 5.75872 0.165544 -0.854549 7.40372 0.17342 -8.60816 3.98265 -1.31056 8.17784 7.96079 -3.52574 60.4771 -4.93305 -3.11439 124.7 17.2631 -24.9542 3.93373e-006 2.52926e-006 -1.1011e-006 -3.63995 -0.0264286 -1.99268 1.01649e-005 1.86371e-006 -3.0116 8.03008 -4.95137 0.697616 -57.6583 -7.60705 4.65676 -128.054 18.5768 27.6202 -6.4858e-006 1.0869e-006 -5.69466e-007 3.64615 -0.0356147 1.9932 8.92515e-007 1.49191e-006 3.0116 -8.03009 -4.9514 -0.697622 173.504 -0.0916091 7.21304 180 7.01536e-015 178.877 175.564 13.974 -179.902 -1.98412e-006 2.66227e-006 0.199766 -20.2525 69.8054 21.1569 8.13649 25.2327 -3.48774 176.278 -3.92882 2.40211 4.54188e-006 -4.6773e-006 -1.14969 -1.5427 -8.40095 0.147521 -4.08024e-007 -1.90172e-007 -0.0850175 18.6086 67.865 -19.4073 -8.1357 25.2327 3.4874 
55.1553 84.2124 -4.81481 3.54347 -8.51734 0.73084 -0.416321 0.885355 0.0545522 -0.849218 5.76152 0.16541 -0.85281 7.40651 0.173236 -8.59894 3.92218 -1.31841 8.16854 7.95318 -3.52638 60.4883 -4.94075 -3.1198 124.737 17.3546 -25.0232 3.93373e-006 2.52926e-006 -1.1011e-006 -3.63995 -0.0264286 -1.99268 1.01649e-005 1.86371e-006 -3.0116 8.03008 -4.95137 0.697616 -57.6567 -7.62312 4.66713 -128.111 18.6438 27.7038 -6.4858e-006 1.0869e-006 -5.69466e-007 3.64615 -0.0356147 1.9932 8.92515e-007 1.49191e-006 3.0116 -8.03009 -4.9514 -0.697622 173.52 -0.0491854 7.1957 180 7.01536e-015 178.878 175.574 13.976 -179.903 -1.98412e-006 2.66227e-006 0.199801 -20.2538 69.8067 21.1582 8.13649 25.2327 -3.48774 176.287 -3.87701 2.40163 4.54188e-006 -4.6773e-006 -1.14905 -1.54423 -8.41597 0.147305 -4.08024e-007 -1.90172e-007 -0.0851568 18.611 67.8679 -19.4099 -8.1357 25.2327 3.4874 
55.1474 84.2106 -4.8193 3.53685 -8.47867 0.735287 -0.415946 0.886637 0.0545556 -0.847511 5.76437 0.16528 -0.8511 7.40937 0.173057 -8.58972 3.86228 -1.32613 8.15912 7.94555 -3.52691 60.5001 -4.94894 -3.12555 124.773 17.4464 -25.0922 3.93373e-006 2.52926e-006 -1.1011e-006 -3.63995 -0.0264286 -1.99268 1.01649e-005 1.86371e-006 -3.0116 8.03008 -4.95137 0.697616 -57.6554 -7.63974 4.67787 -128.168 18.7108 27.7872 -6.4858e-006 1.0869e-006 -5.69466e-007 3.64615 -0.0356147 1.9932 8.92515e-007 1.49191e-006 3.0116 -8.03009 -4.9514 -0.697622 173.536 -0.00726224 7.17867 180 7.01537e-015 178.879 175.584 13.9781 -179.904 -1.98412e-006 2.66227e-006 0.199826 -20.255 69.808 21.1595 8.13649 25.2327 -3.48774 176.297 -3.82593 2.40109 4.54188e-006 -4.6773e-006 -1.14842 -1.54587 -8.43069 0.147061 -4.08024e-007 -1.90172e-007 -0.0852884 18.6134 67.8708 -19.4124 -8.1357 25.2327 3.4874 
55.1418 84.2126 -4.8188 3.53034 -8.44037 0.739689 -0.415593 0.887939 0.0545596 -0.845825 5.76726 0.165153 -0.849409 7.41226 0.172881 -8.58051 3.80277 -1.33376 8.14961 7.93792 -3.52737 60.5123 -4.95749 -3.13155 124.81 17.5384 -25.1612 3.93373e-006 2.52926e-006 -1.1011e-006 -3.63995 -0.0264286 -1.99268 1.01649e-005 1.86371e-006 -3.0116 8.03008 -4.95137 0.697616 -57.6543 -7.65675 4.68887 -128.224 18.7778 27.8706 -6.4858e-006 1.0869e-006 -5.69466e-007 3.64615 -0.0356147 1.9932 8.92515e-007 1.49191e-006 3.0116 -8.03009 -4.9514 -0.697622 173.552 0.0343113 7.16186 180 7.01537e-015 178.879 175.593 13.9803 -179.905 -1.98412e-006 2.66227e-006 0.199844 -20.2562 69.8093 21.1608 8.13649 25.2327 -3.48774 176.306 -3.77535 2.4005 4.54188e-006 -4.6773e-006 -1.14781 -1.54759 -8.4452 0.146799 -4.08024e-007 -1.90172e-007 -0.0854144 18.6158 67.8737 -19.415 -8.1357 25.2327 3.4874 
55.1336 84.2113 -4.82745 3.52388 -8.40228 0.744065 -0.415251 0.889252 0.0545638 -0.84415 5.77018 0.165027 -0.847729 7.41517 0.172707 -8.57133 3.7435 -1.34133 8.14005 7.93027 -3.52779 60.5248 -4.96625 -3.13768 124.847 17.6305 -25.2303 3.93373e-006 2.52926e-006 -1.1011e-006 -3.63995 -0.0264286 -1.99268 1.01649e-005 1.86371e-006 -3.0116 8.03008 -4.95137 0.697616 -57.6533 -7.67398 4.70002 -128.281 18.8446 27.9541 -6.4858e-006 1.0869e-006 -5.69466e-007 3.64615 -0.0356147 1.9932 8.92515e-007 1.49191e-006 3.0116 -8.03009 -4.9514 -0.697622 173.568 0.0756863 7.14518 180 7.01537e-015 178.88 175.603 13.9824 -179.907 -1.98412e-006 2.66227e-006 0.199857 -20.2575 69.8106 21.1621 8.13649 25.2327 -3.48774 176.316 -3.72506 2.39988 4.54188e-006 -4.6773e-006 -1.1472 -1.54935 -8.45957 0.146525 -4.08024e-007 -1.90172e-007 -0.0855374 18.6182 67.8766 -19.4175 -8.1357 25.2327 3.4874 
55.1368 84.2102 -4.83418 3.51744 -8.36424 0.748435 -0.414913 0.890568 0.0545681 -0.842477 5.7731 0.164902 -0.846053 7.41809 0.172533 -8.56215 3.68428 -1.3489 8.13049 7.92262 -3.5282 60.5373 -4.97505 -3.14385 124.884 17.7226 -25.2995 3.93373e-006 2.52926e-006 -1.1011e-006 -3.63995 -0.0264286 -1.99268 1.01649e-005 1.86371e-006 -3.0116 8.03008 -4.95137 0.697616 -57.6522 -7.69126 4.71121 -128.339 18.9113 28.0376 -6.4858e-006 1.0869e-006 -5.69466e-007 3.64615 -0.0356147 1.9932 8.92515e-007 1.49191e-006 3.0116 -8.03009 -4.9514 -0.697622 173.583 0.117014 7.12853 180 7.01537e-015 178.881 175.612 13.9846 -179.908 -1.98412e-006 2.66227e-006 0.19987 -20.2588 69.812 21.1634 8.13649 25.2327 -3.48774 176.325 -3.67485 2.39926 4.54188e-006 -4.6773e-006 -1.14659 -1.55112 -8.47392 0.146248 -4.08024e-007 -1.90172e-007 -0.0856596 18.6206 67.8794 -19.4201 -8.1357 25.2327 3.4874 
55.1345 84.2113 -4.83434 3.51096 -8.32609 0.752816 -0.414569 0.891878 0.0545723 -0.840799 5.776 0.164775 -0.844371 7.421 0.172358 -8.55299 3.62495 -1.35649 8.12094 7.91498 -3.52863 60.5497 -4.98375 -3.14996 124.922 17.8144 -25.3689 3.93373e-006 2.52926e-006 -1.1011e-006 -3.63995 -0.0264286 -1.99268 1.01649e-005 1.86371e-006 -3.0116 8.03008 -4.95137 0.697616 -57.6512 -7.70844 4.72233 -128.396 18.9779 28.1213 -6.4858e-006 1.0869e-006 -5.69466e-007 3.64615 -0.0356147 1.9932 8.92515e-007 1.49191e-006 3.0116 -8.03009 -4.9514 -0.697622 173.599 0.158445 7.11183 180 7.01537e-015 178.882 175.622 13.9867 -179.909 -1.98412e-006 2.66227e-006 0.199884 -20.26 69.8133 21.1648 8.13649 25.2327 -3.48774 176.334 -3.62449 2.39865 4.54188e-006 -4.6773e-006 -1.14597 -1.55286 -8.48833 0.145977 -4.08024e-007 -1.90172e-007 -0.0857833 18.6229 67.8823 -19.4226 -8.1357 25.2327 3.4874 
55.1386 84.1914 -4.8459 3.50439 -8.28769 0.757229 -0.414209 0.893174 0.0545761 -0.839107 5.77889 0.164647 -0.842674 7.42388 0.172181 -8.54385 3.56534 -1.36414 8.11146 7.90735 -3.52912 60.5618 -4.9922 -3.15588 124.96 17.9059 -25.4386 3.93373e-006 2.52926e-006 -1.1011e-006 -3.63995 -0.0264286 -1.99268 1.01649e-005 1.86371e-006 -3.0116 8.03008 -4.95137 0.697616 -57.6499 -7.72533 4.73326 -128.454 19.0443 28.2052 -6.4858e-006 1.0869e-006 -5.69466e-007 3.64615 -0.0356147 1.9932 8.92515e-007 1.49191e-006 3.0116 -8.03009 -4.9514 -0.697622 173.615 0.200132 7.09498 180 7.01537e-015 178.882 175.632 13.9888 -179.91 -1.98412e-006 2.66227e-006 0.199904 -20.2613 69.8146 21.1661 8.13649 25.2327 -3.48774 176.344 -3.57377 2.39808 4.54188e-006 -4.6773e-006 -1.14535 -1.55456 -8.5029 0.14572 -4.08024e-007 -1.90172e-007 -0.085911 18.6253 67.8852 -19.4251 -8.1357 25.2327 3.4874 
